<svg width="46" height="46" viewBox="0 0 46 46" fill="none" xmlns="http://www.w3.org/2000/svg">
<g clip-path="url(#clip0)">
<path d="M38.1645 19.4275L38.153 24.9147C38.153 25.2171 37.9862 25.4939 37.7201 25.6368L33.608 27.844C33.4864 27.9097 33.3525 27.9418 33.2194 27.9418C33.0732 27.9418 32.9269 27.9032 32.7972 27.8244C32.5491 27.6757 32.3971 27.4079 32.398 27.1187L32.4062 22.802L23.8213 27.835V45.634L46.0002 32.633V14.834L38.1645 19.4275ZM32.0365 38.5786C32.0365 38.8702 31.882 39.1397 31.6306 39.2875L26.702 42.1773C26.5739 42.2521 26.4301 42.2899 26.2864 42.2899C26.1459 42.2899 26.0046 42.2538 25.8781 42.1815C25.6227 42.0353 25.4649 41.7633 25.4649 41.4685V37.1386C25.4649 36.847 25.6194 36.5775 25.8716 36.4297L30.8002 33.5408C31.0548 33.3921 31.3687 33.3905 31.6233 33.5366C31.8787 33.6828 32.0365 33.9548 32.0365 34.2497V38.5786Z" fill="white"/>
<path d="M35.902 20.754L34.0513 21.8392L34.0439 25.7468L36.5115 24.4226L36.5189 20.3926L35.902 20.754Z" fill="white"/>
<path d="M0 14.834V32.633L22.1789 45.634V27.835L0 14.834Z" fill="white"/>
<path d="M9.01542 8.57031L0.801758 13.3889L23.0005 26.4014L31.5796 21.3726L9.01542 8.57031Z" fill="white"/>
<path d="M13.1076 6.16992L10.6523 7.60987L33.2165 20.4121L35.6735 18.973L13.1076 6.16992Z" fill="white"/>
<path d="M23.0005 0.365234L14.7441 5.20925L37.3109 18.0123L45.1983 13.3883L23.0005 0.365234Z" fill="white"/>
<path d="M27.1074 37.6089V40.0345L30.3932 38.1083V35.6826L27.1074 37.6089Z" fill="white"/>
</g>
<defs>
<clipPath id="clip0">
<rect width="46" height="46" fill="white"/>
</clipPath>
</defs>
</svg>
