<svg width="46" height="46" viewBox="0 0 46 46" fill="none" xmlns="http://www.w3.org/2000/svg">
<path d="M41.8807 35.5944L43.1404 34.7799L42.3185 33.5199C42.2539 33.4208 42.2253 33.3025 42.2377 33.1848C42.2501 33.0672 42.3026 32.9574 42.3863 32.8739L42.9574 32.3047H40.2763C40.1398 32.3047 40.0088 32.2504 39.9123 32.1539C39.8157 32.0573 39.7615 31.9264 39.7615 31.7898C39.7615 29.0056 38.6554 26.3355 36.6867 24.3667C34.718 22.398 32.0478 21.292 29.2636 21.292C26.4795 21.292 23.8093 22.398 21.8406 24.3667C19.8718 26.3355 18.7658 29.0056 18.7658 31.7898C18.7658 31.9264 18.7116 32.0573 18.615 32.1539C18.5185 32.2504 18.3875 32.3047 18.251 32.3047H15.5703L16.1414 32.8739C16.2251 32.9574 16.2776 33.0672 16.29 33.1848C16.3023 33.3025 16.2738 33.4208 16.2092 33.5199L15.3877 34.78L16.6474 35.5945C16.7467 35.6587 16.8209 35.7552 16.8574 35.8677C16.8939 35.9803 16.8906 36.1019 16.848 36.2123L16.3042 37.6167L17.7036 38.1495C17.8143 38.1917 17.9072 38.2708 17.9664 38.3735C18.0256 38.4761 18.0476 38.5961 18.0286 38.7131L17.7876 40.1995L19.2653 40.428C19.3825 40.4461 19.4899 40.5042 19.5693 40.5924C19.6487 40.6806 19.6952 40.7935 19.7009 40.912L19.7725 42.4154L21.264 42.3299C21.3826 42.3237 21.4997 42.3584 21.5957 42.4282C21.6918 42.4981 21.7609 42.5989 21.7915 42.7136L22.1725 44.1677L23.6128 43.7726C23.7276 43.7413 23.8497 43.7506 23.9584 43.7991C24.0671 43.8476 24.1557 43.9321 24.2092 44.0385L24.8815 45.3802L26.2082 44.6929C26.3141 44.638 26.4356 44.6216 26.5522 44.6464C26.6688 44.6712 26.7731 44.7357 26.8475 44.8289L27.7819 45.9998L28.9374 45.0502C29.0296 44.9744 29.1451 44.9331 29.2644 44.9331C29.3836 44.9331 29.4992 44.9744 29.5913 45.0502L30.7469 45.9998L31.6812 44.8289C31.7556 44.7357 31.8599 44.6712 31.9765 44.6464C32.0931 44.6216 32.2147 44.638 32.3205 44.6929L33.6471 45.3802L34.3195 44.0385C34.373 43.9321 34.4616 43.8476 34.5703 43.7991C34.679 43.7507 34.8011 43.7413 34.9159 43.7726L36.3562 44.1677L36.7367 42.7136C36.7674 42.5989 36.8365 42.4982 36.9326 42.4284C37.0286 42.3586 37.1457 42.3238 37.2643 42.3299L38.7557 42.4154L38.8273 40.912C38.833 40.7935 38.8795 40.6806 38.9589 40.5924C39.0383 40.5042 39.1457 40.4461 39.263 40.428L40.7397 40.1995L40.4987 38.7131C40.4798 38.5961 40.5018 38.4761 40.561 38.3735C40.6202 38.2708 40.7131 38.1917 40.8238 38.1495L42.2231 37.6167L41.6798 36.2125C41.6372 36.1021 41.6338 35.9803 41.6704 35.8677C41.707 35.7551 41.7813 35.6586 41.8807 35.5944ZM29.2639 34.5471C28.7231 34.5472 28.1945 34.3869 27.7449 34.0866C27.2953 33.7862 26.9448 33.3593 26.7378 32.8597C26.5308 32.3602 26.4766 31.8105 26.5821 31.2801C26.6875 30.7498 26.9479 30.2626 27.3302 29.8803C27.7125 29.4979 28.1997 29.2375 28.73 29.132C29.2603 29.0265 29.81 29.0806 30.3096 29.2875C30.8092 29.4945 31.2362 29.8449 31.5366 30.2945C31.837 30.7441 31.9973 31.2727 31.9973 31.8134C31.9965 32.5381 31.7082 33.2329 31.1958 33.7454C30.6834 34.2579 29.9886 34.5462 29.2639 34.5471Z" fill="white"/>
<path d="M7.01671 4.12933L14.022 6.0747C14.651 6.24936 15.2358 6.55558 15.7377 6.97311C16.2396 7.39064 16.6471 7.90998 16.9332 8.49675C17.2194 9.08353 17.3778 9.72438 17.3978 10.3769C17.4178 11.0295 17.2991 11.6788 17.0494 12.282L16.7446 13.0186H16.7439C16.7402 13.0276 16.737 13.0367 16.7327 13.0455L11.8935 23.0967L13.8219 23.8704C15.845 19.9228 19.3033 16.9 23.4862 15.4232C27.669 13.9464 32.2586 14.1279 36.3118 15.9304C36.365 14.9036 36.4553 13.0471 36.4868 11.7095C36.5254 10.0664 35.7322 8.6724 34.1297 7.56616C33.3319 7.02265 32.455 6.6056 31.53 6.32976C23.9106 4.41508 8.05746 0.75119 4.7999 0C4.79423 1.00265 5.03972 3.07694 7.01671 4.12933ZM30.4972 7.80455C30.6281 7.76565 30.769 7.78034 30.8891 7.84538C31.0091 7.91042 31.0984 8.02048 31.1374 8.15136L32.2378 11.8539C32.2571 11.9187 32.2634 11.9867 32.2564 12.0539C32.2494 12.1212 32.2292 12.1864 32.197 12.2458C32.1648 12.3053 32.1212 12.3578 32.0687 12.4004C32.0162 12.443 31.9558 12.4748 31.891 12.4941C31.8262 12.5134 31.7582 12.5197 31.6909 12.5127C31.6237 12.5057 31.5585 12.4855 31.499 12.4533C31.4396 12.4211 31.387 12.3775 31.3444 12.3249C31.3018 12.2724 31.27 12.212 31.2507 12.1472L30.1503 8.44473C30.131 8.37992 30.1247 8.31194 30.1317 8.24469C30.1387 8.17745 30.1589 8.11224 30.1911 8.05279C30.2233 7.99334 30.2669 7.94082 30.3195 7.89823C30.372 7.85564 30.4324 7.8238 30.4972 7.80455ZM28.1742 7.80455C28.239 7.78527 28.307 7.77895 28.3742 7.78595C28.4415 7.79295 28.5067 7.81313 28.5662 7.84533C28.6256 7.87754 28.6782 7.92114 28.7208 7.97365C28.7634 8.02616 28.7952 8.08654 28.8145 8.15136L29.9148 11.8539C29.934 11.9187 29.9403 11.9867 29.9333 12.0539C29.9263 12.1212 29.9061 12.1864 29.8739 12.2458C29.8417 12.3053 29.7981 12.3578 29.7456 12.4004C29.6931 12.443 29.6327 12.4748 29.5679 12.4941C29.5031 12.5134 29.4351 12.5197 29.3679 12.5127C29.3006 12.5057 29.2354 12.4855 29.1759 12.4533C29.1165 12.4211 29.064 12.3775 29.0214 12.3249C28.9788 12.2724 28.9469 12.212 28.9277 12.1472L27.8274 8.44473C27.7885 8.31385 27.8032 8.17287 27.8682 8.05282C27.9333 7.93276 28.0433 7.84346 28.1742 7.80455ZM25.9886 7.80032C26.054 7.78296 26.1221 7.77866 26.1892 7.78767C26.2562 7.79668 26.3208 7.81882 26.3792 7.85284C26.4377 7.88685 26.4889 7.93207 26.5299 7.98589C26.5708 8.03971 26.6008 8.10109 26.618 8.1665L27.5962 11.869C27.6138 11.9345 27.6183 12.0028 27.6094 12.07C27.6006 12.1372 27.5785 12.202 27.5445 12.2607C27.5106 12.3193 27.4653 12.3707 27.4114 12.4119C27.3576 12.453 27.2961 12.4831 27.2305 12.5004C27.165 12.5177 27.0967 12.5219 27.0295 12.5128C26.9623 12.5036 26.8976 12.4813 26.8391 12.4471C26.7806 12.4129 26.7294 12.3674 26.6885 12.3134C26.6476 12.2593 26.6177 12.1977 26.6007 12.1321L25.6224 8.42959C25.5875 8.29759 25.6065 8.15714 25.6752 8.03913C25.7439 7.92113 25.8566 7.83523 25.9886 7.80032Z" fill="white"/>
<path d="M10.9989 23.8467L7.05434 22.2661C6.62485 22.094 6.23553 21.8351 5.91077 21.5055C5.58601 21.1759 5.33281 20.7828 5.16704 20.3509C5.00127 19.9189 4.9265 19.4573 4.94741 18.9951C4.96832 18.5329 5.08446 18.08 5.28856 17.6648L7.73149 12.6953C8.07939 11.9852 8.6669 11.4209 9.39037 11.1018C10.1138 10.7827 10.9267 10.7294 11.6857 10.9513L15.9694 12.1983L16.098 11.8881C16.2919 11.4195 16.3841 10.9151 16.3686 10.4083C16.353 9.90142 16.2301 9.40364 16.0078 8.94786C15.7855 8.49208 15.469 8.08869 15.0791 7.76438C14.6893 7.44006 14.2351 7.2022 13.7465 7.06654L8.30207 5.55469C8.34274 5.68999 8.36863 5.8293 8.3793 5.97018L8.38115 5.99521C8.41475 6.45588 8.29901 6.91512 8.0511 7.30485C7.80319 7.69458 7.4363 7.99405 7.00481 8.15888C5.91318 8.55968 4.91238 9.17404 4.06091 9.96606C2.33539 11.5895 1.39112 13.3957 0.452625 16.8684C-0.226998 19.3834 -0.061726 20.5661 0.425749 21.6593C0.822402 22.5487 2.82595 23.3316 4.43573 23.9606C5.8303 24.5055 7.14753 25.0202 7.78102 25.6653C8.73239 26.634 9.00785 27.9237 9.1517 29.0574C9.18362 29.3247 9.31165 29.5712 9.5119 29.751C9.71216 29.9309 9.97099 30.0317 10.2401 30.0348H11.9951C12.1772 28.2283 12.6438 26.4619 13.3777 24.8012L10.9989 23.8467Z" fill="white"/>
<path d="M29.2633 15.4629C20.4325 15.4629 13.2168 22.509 12.9443 31.2748H17.7471C17.8798 28.3097 19.1511 25.51 21.2963 23.4587C23.4415 21.4074 26.2952 20.2626 29.2633 20.2626C32.2314 20.2626 35.0851 21.4074 37.2303 23.4587C39.3755 25.51 40.6468 28.3097 40.7795 31.2748H45.5823C45.3098 22.509 38.0941 15.4629 29.2633 15.4629Z" fill="white"/>
<path d="M29.2641 30.1094C28.927 30.1093 28.5975 30.2092 28.3172 30.3964C28.0369 30.5836 27.8184 30.8497 27.6894 31.1611C27.5604 31.4724 27.5266 31.8151 27.5923 32.1457C27.658 32.4763 27.8202 32.7799 28.0585 33.0183C28.2969 33.2567 28.6005 33.419 28.9311 33.4848C29.2616 33.5506 29.6043 33.5169 29.9157 33.3879C30.2271 33.2589 30.4933 33.0405 30.6806 32.7603C30.8678 32.48 30.9678 32.1505 30.9678 31.8135C30.9673 31.3618 30.7876 30.9287 30.4682 30.6092C30.1489 30.2898 29.7158 30.11 29.2641 30.1094Z" fill="white"/>
</svg>
