<svg width="46" height="46" viewBox="0 0 46 46" fill="none" xmlns="http://www.w3.org/2000/svg">
<path d="M23 25.1386C26.0754 25.1386 33.3059 21.4375 33.3059 12.5692C33.3059 11.3321 33.2758 10.1372 33.1738 9.00815C33.0065 6.78613 32.5514 4.8169 31.4182 3.30772C29.9648 1.25397 27.4219 0 23 0C18.579 0 16.0362 1.25346 14.5828 3.30657C13.4489 4.81613 12.9935 6.78587 12.8263 9.00866C12.7244 10.1376 12.6943 11.3324 12.6943 12.5693C12.6942 21.4375 19.9247 25.1386 23 25.1386ZM26.364 4.60478C26.0639 5.36338 25.9135 5.74275 25.6132 6.50122C23.6744 5.95346 22.3255 5.95346 20.3867 6.50122C20.0865 5.74275 19.9361 5.36338 19.6357 4.60478C22.0604 3.87078 23.9397 3.8709 26.364 4.60478ZM14.2273 10.6463C14.3462 10.906 14.8506 11.9045 15.6314 11.9981C16.5289 12.1058 18.0187 8.81948 23 8.81145C27.9813 8.81948 29.4712 12.1058 30.3687 11.9981C31.1495 11.9044 31.6539 10.906 31.7727 10.6463C31.7968 11.2827 31.8058 11.9269 31.8058 12.5693C31.8058 16.9041 29.8917 19.59 28.2859 21.0798C26.2628 22.9571 24.0164 23.6384 23.0002 23.6384C21.9839 23.6384 19.7376 22.9571 17.7144 21.0798C16.1085 19.59 14.1946 16.9041 14.1946 12.5693C14.1945 11.9269 14.2033 11.2827 14.2273 10.6463Z" fill="white"/>
<path d="M42.1335 38.0289C41.6073 34.7574 40.5242 30.543 38.3515 29.0455C36.8677 28.0223 31.6912 25.2568 29.4807 24.0758L29.4433 24.056C29.1907 23.921 28.8821 23.9481 28.6569 24.1249C27.499 25.0339 26.2306 25.6466 24.887 25.9458C24.6496 25.9987 24.4547 26.1673 24.3687 26.3946L23.0005 30.001L21.6322 26.3946C21.5461 26.1673 21.3513 25.9987 21.1139 25.9458C19.7704 25.6466 18.502 25.0339 17.3442 24.1249C17.1185 23.948 16.8102 23.921 16.5575 24.056C14.3734 25.2231 9.1335 28.0452 7.65607 29.0411C5.15488 30.726 4.0614 36.8237 3.86751 38.029C3.84839 38.1486 3.85948 38.2708 3.89976 38.385C3.95279 38.5347 4.77997 40.6773 8.91679 42.4C9.1553 42.0994 9.47297 41.8715 9.83028 41.7432C9.38641 41.5857 9.00118 41.2768 8.75477 40.8623C8.38764 40.2445 8.374 39.4693 8.71831 38.8408C9.77891 36.8993 11.8101 35.6914 14.0218 35.6884C16.079 35.6884 17.9438 36.7107 19.0512 38.3722H26.9452C27.1619 38.0485 27.4105 37.7458 27.6894 37.466C28.8303 36.3217 30.3482 35.6905 31.9635 35.6882H31.9648H31.9661C34.176 35.6882 36.2097 36.8895 37.274 38.8243C37.6189 39.4523 37.6073 40.2259 37.2424 40.8457C36.9974 41.2604 36.6132 41.5703 36.1698 41.7292C36.5334 41.858 36.856 42.0893 37.0963 42.3952C41.2225 40.6734 42.0484 38.5347 42.1015 38.3853C42.1416 38.2707 42.1527 38.1483 42.1335 38.0289Z" fill="white"/>
<path d="M35.4912 43.3967H35.4907L31.6874 43.4019C31.6199 43.2418 31.4904 42.7972 31.4892 41.7364C31.4874 40.6756 31.6154 40.2302 31.6827 40.0697L35.485 40.0641C35.5759 40.0636 35.6598 40.0158 35.7058 39.9376C35.752 39.8592 35.7533 39.7629 35.7097 39.6833C34.9595 38.3196 33.528 37.4727 31.9659 37.4727C30.827 37.4743 29.7573 37.9195 28.9533 38.7259C28.539 39.1412 28.2229 39.6276 28.0121 40.1568H17.9839C17.3543 38.5869 15.8179 37.473 14.0218 37.473C12.4644 37.4752 11.0323 38.327 10.2844 39.6963C10.2408 39.7759 10.2426 39.8726 10.2889 39.9505C10.3352 40.0284 10.4191 40.076 10.5097 40.076H10.5099L14.3133 40.07C14.381 40.2301 14.5102 40.6747 14.5115 41.7358C14.5133 42.7968 14.3853 43.2419 14.318 43.4022L10.5157 43.4079C10.425 43.408 10.3412 43.4562 10.2949 43.5341C10.2489 43.6122 10.2473 43.709 10.2912 43.7885C11.0411 45.1521 12.4732 45.9997 14.0285 45.9997H14.0348C15.1739 45.9979 16.2434 45.5528 17.0476 44.7463C17.4619 44.3307 17.7779 43.8441 17.9885 43.315H28.0165C28.6462 44.8853 30.1815 45.9991 31.9732 45.9993C31.9732 45.9993 31.9789 45.9993 31.9792 45.9993C33.5363 45.9972 34.9686 45.1449 35.7165 43.7764C35.7601 43.6967 35.7583 43.5999 35.712 43.5221C35.6657 43.4442 35.5819 43.3967 35.4912 43.3967Z" fill="white"/>
</svg>
