<svg width="46" height="46" viewBox="0 0 46 46" fill="none" xmlns="http://www.w3.org/2000/svg">
<path d="M41.8798 35.5944L43.1394 34.7799L42.3175 33.5199C42.2529 33.4208 42.2244 33.3025 42.2367 33.1848C42.2491 33.0672 42.3016 32.9574 42.3854 32.8739L42.9565 32.3047H40.2753C40.1388 32.3047 40.0078 32.2504 39.9113 32.1539C39.8147 32.0573 39.7605 31.9264 39.7605 31.7898C39.7605 29.0056 38.6545 26.3355 36.6857 24.3667C34.717 22.398 32.0469 21.292 29.2627 21.292C26.4785 21.292 23.8083 22.398 21.8396 24.3667C19.8709 26.3355 18.7649 29.0056 18.7649 31.7898C18.7649 31.9264 18.7106 32.0573 18.6141 32.1539C18.5175 32.2504 18.3865 32.3047 18.25 32.3047H15.5693L16.1404 32.8739C16.2242 32.9574 16.2767 33.0672 16.289 33.1848C16.3014 33.3025 16.2728 33.4208 16.2082 33.5199L15.3867 34.78L16.6464 35.5945C16.7457 35.6587 16.8199 35.7552 16.8564 35.8677C16.8929 35.9803 16.8896 36.1019 16.847 36.2123L16.3032 37.6167L17.7026 38.1495C17.8134 38.1917 17.9062 38.2708 17.9654 38.3735C18.0247 38.4761 18.0466 38.5961 18.0277 38.7131L17.7866 40.1995L19.2643 40.428C19.3815 40.4461 19.489 40.5042 19.5683 40.5924C19.6477 40.6806 19.6942 40.7935 19.7 40.912L19.7715 42.4154L21.263 42.3299C21.3816 42.3237 21.4987 42.3584 21.5948 42.4282C21.6908 42.4981 21.7599 42.5989 21.7905 42.7136L22.1715 44.1677L23.6118 43.7726C23.7266 43.7413 23.8488 43.7506 23.9575 43.7991C24.0662 43.8476 24.1548 43.9321 24.2082 44.0385L24.8805 45.3802L26.2072 44.6929C26.3131 44.638 26.4346 44.6216 26.5512 44.6464C26.6678 44.6712 26.7722 44.7357 26.8465 44.8289L27.7809 45.9998L28.9364 45.0502C29.0286 44.9744 29.1441 44.9331 29.2634 44.9331C29.3826 44.9331 29.4982 44.9744 29.5903 45.0502L30.7459 45.9998L31.6803 44.8289C31.7546 44.7357 31.859 44.6712 31.9755 44.6464C32.0921 44.6216 32.2137 44.638 32.3195 44.6929L33.6461 45.3802L34.3185 44.0385C34.372 43.9321 34.4606 43.8476 34.5693 43.7991C34.678 43.7507 34.8001 43.7413 34.915 43.7726L36.3553 44.1677L36.7357 42.7136C36.7664 42.5989 36.8356 42.4982 36.9316 42.4284C37.0276 42.3586 37.1447 42.3238 37.2633 42.3299L38.7547 42.4154L38.8263 40.912C38.832 40.7935 38.8785 40.6806 38.9579 40.5924C39.0373 40.5042 39.1447 40.4461 39.262 40.428L40.7387 40.1995L40.4978 38.7131C40.4788 38.5961 40.5008 38.4761 40.56 38.3735C40.6192 38.2708 40.7121 38.1917 40.8229 38.1495L42.2222 37.6167L41.6789 36.2125C41.6362 36.1021 41.6329 35.9803 41.6694 35.8677C41.706 35.7551 41.7803 35.6586 41.8798 35.5944ZM29.2629 34.5471C28.7221 34.5472 28.1935 34.3869 27.7439 34.0866C27.2943 33.7862 26.9438 33.3593 26.7368 32.8597C26.5299 32.3602 26.4757 31.8105 26.5811 31.2801C26.6866 30.7498 26.9469 30.2626 27.3292 29.8803C27.7116 29.4979 28.1987 29.2375 28.729 29.132C29.2594 29.0265 29.8091 29.0806 30.3086 29.2875C30.8082 29.4945 31.2352 29.8449 31.5356 30.2945C31.836 30.7441 31.9963 31.2727 31.9963 31.8134C31.9955 32.5381 31.7072 33.2329 31.1948 33.7454C30.6824 34.2579 29.9876 34.5462 29.2629 34.5471Z" fill="#EE6000"/>
<path d="M7.01573 4.12933L14.021 6.0747C14.65 6.24936 15.2348 6.55558 15.7367 6.97311C16.2386 7.39064 16.6461 7.90998 16.9323 8.49675C17.2184 9.08353 17.3768 9.72438 17.3968 10.3769C17.4168 11.0295 17.2981 11.6788 17.0484 12.282L16.7436 13.0186H16.7429C16.7392 13.0276 16.736 13.0367 16.7318 13.0455L11.8925 23.0967L13.8209 23.8704C15.844 19.9228 19.3023 16.9 23.4852 15.4232C27.668 13.9464 32.2576 14.1279 36.3108 15.9304C36.364 14.9036 36.4543 13.0471 36.4858 11.7095C36.5245 10.0664 35.7313 8.6724 34.1287 7.56616C33.3309 7.02265 32.4541 6.6056 31.529 6.32976C23.9096 4.41508 8.05648 0.75119 4.79892 0C4.79326 1.00265 5.03875 3.07694 7.01573 4.12933ZM30.4962 7.80455C30.6271 7.76565 30.7681 7.78034 30.8881 7.84538C31.0082 7.91042 31.0975 8.02048 31.1364 8.15136L32.2369 11.8539C32.2561 11.9187 32.2624 11.9867 32.2554 12.0539C32.2484 12.1212 32.2282 12.1864 32.196 12.2458C32.1638 12.3053 32.1202 12.3578 32.0677 12.4004C32.0152 12.443 31.9548 12.4748 31.89 12.4941C31.8252 12.5134 31.7572 12.5197 31.69 12.5127C31.6227 12.5057 31.5575 12.4855 31.498 12.4533C31.4386 12.4211 31.3861 12.3775 31.3435 12.3249C31.3009 12.2724 31.269 12.212 31.2498 12.1472L30.1493 8.44473C30.13 8.37992 30.1237 8.31194 30.1307 8.24469C30.1377 8.17745 30.1579 8.11224 30.1902 8.05279C30.2224 7.99334 30.266 7.94082 30.3185 7.89823C30.371 7.85564 30.4314 7.8238 30.4962 7.80455ZM28.1732 7.80455C28.238 7.78527 28.306 7.77895 28.3733 7.78595C28.4405 7.79295 28.5057 7.81313 28.5652 7.84533C28.6247 7.87754 28.6772 7.92114 28.7198 7.97365C28.7624 8.02616 28.7942 8.08654 28.8135 8.15136L29.9138 11.8539C29.933 11.9187 29.9394 11.9867 29.9323 12.0539C29.9253 12.1212 29.9052 12.1864 29.8729 12.2458C29.8407 12.3053 29.7971 12.3578 29.7446 12.4004C29.6921 12.443 29.6317 12.4748 29.5669 12.4941C29.5021 12.5134 29.4341 12.5197 29.3669 12.5127C29.2996 12.5057 29.2344 12.4855 29.175 12.4533C29.1155 12.4211 29.063 12.3775 29.0204 12.3249C28.9778 12.2724 28.9459 12.212 28.9267 12.1472L27.8264 8.44473C27.7875 8.31385 27.8022 8.17287 27.8672 8.05282C27.9323 7.93276 28.0423 7.84346 28.1732 7.80455ZM25.9876 7.80032C26.053 7.78296 26.1211 7.77866 26.1882 7.78767C26.2552 7.79668 26.3198 7.81882 26.3783 7.85284C26.4367 7.88685 26.4879 7.93207 26.5289 7.98589C26.5698 8.03971 26.5998 8.10109 26.617 8.1665L27.5952 11.869C27.6128 11.9345 27.6173 12.0028 27.6085 12.07C27.5996 12.1372 27.5775 12.202 27.5436 12.2607C27.5096 12.3193 27.4644 12.3707 27.4105 12.4119C27.3566 12.453 27.2951 12.4831 27.2296 12.5004C27.164 12.5177 27.0957 12.5219 27.0285 12.5128C26.9614 12.5036 26.8966 12.4813 26.8381 12.4471C26.7796 12.4129 26.7284 12.3674 26.6875 12.3134C26.6466 12.2593 26.6167 12.1977 26.5997 12.1321L25.6214 8.42959C25.5866 8.29759 25.6056 8.15714 25.6742 8.03913C25.7429 7.92113 25.8556 7.83523 25.9876 7.80032Z" fill="#EE6000"/>
<path d="M10.9989 23.8467L7.05434 22.2661C6.62485 22.094 6.23553 21.8351 5.91077 21.5055C5.58601 21.1759 5.33281 20.7828 5.16704 20.3509C5.00127 19.9189 4.9265 19.4573 4.94741 18.9951C4.96832 18.5329 5.08446 18.08 5.28856 17.6648L7.73149 12.6953C8.07939 11.9852 8.6669 11.4209 9.39037 11.1018C10.1138 10.7827 10.9267 10.7294 11.6857 10.9513L15.9694 12.1983L16.098 11.8881C16.2919 11.4195 16.3841 10.9151 16.3686 10.4083C16.353 9.90142 16.2301 9.40364 16.0078 8.94786C15.7855 8.49208 15.469 8.08869 15.0791 7.76438C14.6893 7.44006 14.2351 7.2022 13.7465 7.06654L8.30207 5.55469C8.34274 5.68999 8.36863 5.8293 8.3793 5.97018L8.38115 5.99521C8.41475 6.45588 8.29901 6.91512 8.0511 7.30485C7.80319 7.69458 7.4363 7.99405 7.00481 8.15888C5.91318 8.55968 4.91238 9.17404 4.06091 9.96606C2.33539 11.5895 1.39112 13.3957 0.452625 16.8684C-0.226998 19.3834 -0.061726 20.5661 0.425749 21.6593C0.822402 22.5487 2.82595 23.3316 4.43573 23.9606C5.8303 24.5055 7.14753 25.0202 7.78102 25.6653C8.73239 26.634 9.00785 27.9237 9.1517 29.0574C9.18362 29.3247 9.31165 29.5712 9.5119 29.751C9.71216 29.9309 9.97099 30.0317 10.2401 30.0348H11.9951C12.1772 28.2283 12.6438 26.4619 13.3777 24.8012L10.9989 23.8467Z" fill="#EE6000"/>
<path d="M29.2643 15.4629C20.4335 15.4629 13.2178 22.509 12.9453 31.2748H17.7481C17.8808 28.3097 19.1521 25.51 21.2973 23.4587C23.4425 21.4074 26.2962 20.2626 29.2643 20.2626C32.2324 20.2626 35.0861 21.4074 37.2313 23.4587C39.3765 25.51 40.6478 28.3097 40.7805 31.2748H45.5833C45.3108 22.509 38.0951 15.4629 29.2643 15.4629Z" fill="#EE6000"/>
<path d="M29.2631 30.1094C28.9261 30.1093 28.5965 30.2092 28.3162 30.3964C28.036 30.5836 27.8175 30.8497 27.6884 31.1611C27.5594 31.4724 27.5256 31.8151 27.5913 32.1457C27.657 32.4763 27.8193 32.7799 28.0576 33.0183C28.2959 33.2567 28.5995 33.419 28.9301 33.4848C29.2607 33.5506 29.6033 33.5169 29.9147 33.3879C30.2261 33.2589 30.4923 33.0405 30.6796 32.7603C30.8668 32.48 30.9668 32.1505 30.9668 31.8135C30.9663 31.3618 30.7866 30.9287 30.4673 30.6092C30.1479 30.2898 29.7148 30.11 29.2631 30.1094Z" fill="#EE6000"/>
</svg>
