<svg width="15" height="20" viewBox="0 0 15 20" fill="none" xmlns="http://www.w3.org/2000/svg">
<path d="M7.50012 9.78131C9.69279 9.78131 11.4705 7.59171 11.4705 4.89069C11.4705 2.1896 10.8868 0 7.50012 0C4.11341 0 3.52966 2.1896 3.52966 4.89069C3.52966 7.59171 5.30734 9.78131 7.50012 9.78131Z" fill="#828282"/>
<path d="M0.000789404 17.2487C0.00010576 17.084 -0.000577884 17.2023 0.000789404 17.2487V17.2487Z" fill="#828282"/>
<path d="M14.9989 17.3771C15.0011 17.3321 14.9996 17.0643 14.9989 17.3771V17.3771Z" fill="#828282"/>
<path d="M14.9903 17.0509C14.9168 12.3457 14.3108 11.0049 9.67389 10.1562C9.67389 10.1562 9.02118 10.9997 7.49982 10.9997C5.97847 10.9997 5.32563 10.1562 5.32563 10.1562C0.739312 10.9957 0.0965121 12.3165 0.0119923 16.8981C0.00506171 17.2722 0.00184997 17.2919 0.000610352 17.2484C0.000892084 17.3298 0.00123004 17.4803 0.00123004 17.7428C0.00123004 17.7428 1.10517 19.9997 7.49982 19.9997C13.8944 19.9997 14.9984 17.7428 14.9984 17.7428C14.9984 17.5741 14.9985 17.4569 14.9987 17.3771C14.9975 17.404 14.995 17.3519 14.9903 17.0509Z" fill="#828282"/>
</svg>
