<svg width="46" height="46" viewBox="0 0 46 46" fill="none" xmlns="http://www.w3.org/2000/svg">
<g clip-path="url(#clip0)">
<path d="M38.1635 19.4275L38.152 24.9147C38.152 25.2171 37.9852 25.4939 37.7191 25.6368L33.607 27.844C33.4854 27.9097 33.3516 27.9418 33.2184 27.9418C33.0722 27.9418 32.926 27.9032 32.7962 27.8244C32.5482 27.6757 32.3961 27.4079 32.397 27.1187L32.4052 22.802L23.8203 27.835V45.634L45.9993 32.633V14.834L38.1635 19.4275ZM32.0355 38.5786C32.0355 38.8702 31.8811 39.1397 31.6297 39.2875L26.701 42.1773C26.5729 42.2521 26.4292 42.2899 26.2854 42.2899C26.145 42.2899 26.0036 42.2538 25.8771 42.1815C25.6217 42.0353 25.4639 41.7633 25.4639 41.4685V37.1386C25.4639 36.847 25.6184 36.5775 25.8706 36.4297L30.7992 33.5408C31.0539 33.3921 31.3677 33.3905 31.6223 33.5366C31.8777 33.6828 32.0355 33.9548 32.0355 34.2497V38.5786Z" fill="#EE6000"/>
<path d="M35.9011 20.754L34.0503 21.8392L34.043 25.7468L36.5106 24.4226L36.5179 20.3926L35.9011 20.754Z" fill="#EE6000"/>
<path d="M0 14.834V32.633L22.1789 45.634V27.835L0 14.834Z" fill="#EE6000"/>
<path d="M9.01639 8.57031L0.802734 13.3889L23.0014 26.4014L31.5806 21.3726L9.01639 8.57031Z" fill="#EE6000"/>
<path d="M13.1076 6.16992L10.6523 7.60987L33.2165 20.4121L35.6735 18.973L13.1076 6.16992Z" fill="#EE6000"/>
<path d="M23.0005 0.365234L14.7441 5.20925L37.3109 18.0123L45.1983 13.3883L23.0005 0.365234Z" fill="#EE6000"/>
<path d="M27.1074 37.6089V40.0345L30.3932 38.1083V35.6826L27.1074 37.6089Z" fill="#EE6000"/>
</g>
<defs>
<clipPath id="clip0">
<rect width="46" height="46" fill="white"/>
</clipPath>
</defs>
</svg>
