<svg width="14" height="14" viewBox="0 0 14 14" fill="none" xmlns="http://www.w3.org/2000/svg">
<path d="M7.19014 0C3.35309 0 1.3125 2.45886 1.3125 5.13998C1.3125 6.38341 2.00728 7.93398 3.11946 8.42575C3.28834 8.50188 3.38022 8.46951 3.41784 8.31287C3.4511 8.19387 3.59723 7.62072 3.66811 7.35033C3.68998 7.2637 3.67861 7.18845 3.6086 7.10707C3.23934 6.68005 2.9462 5.90214 2.9462 5.17236C2.9462 3.3024 4.43289 1.48669 6.96263 1.48669C9.15023 1.48669 10.6807 2.90776 10.6807 4.94047C10.6807 7.23745 9.46524 8.82652 7.8858 8.82652C7.01163 8.82652 6.3606 8.14049 6.56711 7.2917C6.8165 6.28103 7.30564 5.19423 7.30564 4.46533C7.30564 3.81167 6.93638 3.2709 6.18209 3.2709C5.29218 3.2709 4.57027 4.15206 4.57027 5.33511C4.57027 6.08677 4.83628 6.5943 4.83628 6.5943C4.83628 6.5943 3.95599 10.1505 3.79236 10.8146C3.51585 11.939 3.82999 13.76 3.85711 13.9166C3.87374 14.0033 3.97087 14.0304 4.02512 13.9595C4.11175 13.8457 5.1758 12.3276 5.47419 11.2303C5.58269 10.8304 6.02809 9.20891 6.02809 9.20891C6.32123 9.73831 7.16739 10.182 8.06868 10.182C10.7498 10.182 12.6871 7.82548 12.6871 4.9011C12.6775 2.09747 10.2782 0 7.19014 0Z" fill="white"/>
</svg>
