<svg width="20" height="15" viewBox="0 0 20 15" fill="none" xmlns="http://www.w3.org/2000/svg">
<path d="M0.416966 1.21703C3.16189 3.54168 7.97837 7.63145 9.394 8.90664C9.58404 9.07875 9.78786 9.16625 9.99947 9.16625C10.2106 9.16625 10.4141 9.07957 10.6037 8.90828C12.0206 7.63184 16.837 3.54168 19.582 1.21703C19.7529 1.07258 19.779 0.818672 19.6406 0.64207C19.3208 0.233984 18.8439 0 18.3328 0H1.66615C1.15509 0 0.678177 0.233985 0.358372 0.64211C0.220013 0.818672 0.246067 1.07258 0.416966 1.21703Z" fill="#828282"/>
<path d="M19.7586 2.47635C19.6109 2.4076 19.4371 2.43158 19.3142 2.53658C17.5165 4.06041 15.148 6.07377 13.3617 7.61021C13.2677 7.6908 13.2148 7.8092 13.2169 7.9333C13.2189 8.05701 13.2763 8.17377 13.3731 8.25107C15.0329 9.58041 17.5341 11.409 19.3403 12.7087C19.4123 12.7608 19.4978 12.7872 19.5836 12.7872C19.6487 12.7872 19.7138 12.7722 19.7737 12.7412C19.9128 12.67 20.0003 12.5268 20.0003 12.3705V2.85435C20.0003 2.69201 19.9058 2.54431 19.7586 2.47635Z" fill="#828282"/>
<path d="M0.66 12.7093C2.46664 11.4097 4.96828 9.58106 6.62762 8.25169C6.72445 8.17439 6.78184 8.05759 6.78387 7.93392C6.7859 7.80981 6.73301 7.69142 6.63902 7.61083C4.8527 6.07438 2.48371 4.06103 0.686055 2.5372C0.562344 2.4322 0.388203 2.40903 0.241719 2.47696C0.0944141 2.54493 0 2.69263 0 2.85497V12.3712C0 12.5274 0.0875 12.6707 0.226641 12.7419C0.286445 12.7728 0.351562 12.7879 0.41668 12.7879C0.502539 12.7879 0.587969 12.7614 0.66 12.7093Z" fill="#828282"/>
<path d="M19.4894 13.8431C17.745 12.5952 14.5317 10.2685 12.6136 8.7117C12.4573 8.58435 12.2311 8.58841 12.0773 8.72107C11.7009 9.04943 11.386 9.32615 11.1626 9.52713C10.4765 10.1464 9.52435 10.1464 8.8367 9.52631C8.61412 9.32572 8.2992 9.04818 7.92279 8.72103C7.77022 8.58755 7.54357 8.58349 7.38689 8.71166C5.47525 10.2632 2.2583 12.5927 0.511074 13.8431C0.413808 13.9131 0.351152 14.0209 0.338964 14.1401C0.327168 14.2594 0.366621 14.3778 0.448418 14.4656C0.763808 14.8054 1.20814 15.0004 1.66674 15.0004H18.3334C18.792 15.0004 19.2359 14.8054 19.5521 14.4657C19.6335 14.3782 19.6733 14.2598 19.6615 14.1406C19.6493 14.0214 19.5867 13.9131 19.4894 13.8431Z" fill="#828282"/>
</svg>
