<svg width="46" height="46" viewBox="0 0 46 46" fill="none" xmlns="http://www.w3.org/2000/svg">
<path d="M22.9991 25.1386C26.0744 25.1386 33.3049 21.4375 33.3049 12.5692C33.3049 11.3321 33.2748 10.1372 33.1729 9.00815C33.0055 6.78613 32.5504 4.8169 31.4173 3.30772C29.9638 1.25397 27.4209 0 22.9991 0C18.578 0 16.0352 1.25346 14.5818 3.30657C13.4479 4.81613 12.9925 6.78587 12.8253 9.00866C12.7234 10.1376 12.6934 11.3324 12.6934 12.5693C12.6932 21.4375 19.9237 25.1386 22.9991 25.1386ZM26.363 4.60478C26.0629 5.36338 25.9125 5.74275 25.6122 6.50122C23.6734 5.95346 22.3245 5.95346 20.3857 6.50122C20.0855 5.74275 19.9351 5.36338 19.6348 4.60478C22.0595 3.87078 23.9387 3.8709 26.363 4.60478ZM14.2264 10.6463C14.3452 10.906 14.8496 11.9045 15.6304 11.9981C16.5279 12.1058 18.0177 8.81948 22.9991 8.81145C27.9803 8.81948 29.4702 12.1058 30.3678 11.9981C31.1485 11.9044 31.653 10.906 31.7718 10.6463C31.7959 11.2827 31.8048 11.9269 31.8048 12.5693C31.8048 16.9041 29.8908 19.59 28.2849 21.0798C26.2618 22.9571 24.0154 23.6384 22.9992 23.6384C21.983 23.6384 19.7366 22.9571 17.7135 21.0798C16.1075 19.59 14.1936 16.9041 14.1936 12.5693C14.1935 11.9269 14.2023 11.2827 14.2264 10.6463Z" fill="#EE6000"/>
<path d="M42.1325 38.0289C41.6063 34.7574 40.5232 30.543 38.3506 29.0455C36.8668 28.0223 31.6902 25.2568 29.4797 24.0758L29.4424 24.056C29.1897 23.921 28.8811 23.9481 28.656 24.1249C27.498 25.0339 26.2296 25.6466 24.886 25.9458C24.6487 25.9987 24.4537 26.1673 24.3677 26.3946L22.9995 30.001L21.6312 26.3946C21.5451 26.1673 21.3504 25.9987 21.1129 25.9458C19.7694 25.6466 18.501 25.0339 17.3432 24.1249C17.1176 23.948 16.8092 23.921 16.5565 24.056C14.3724 25.2231 9.13252 28.0452 7.65509 29.0411C5.1539 30.726 4.06042 36.8237 3.86653 38.029C3.84741 38.1486 3.8585 38.2708 3.89878 38.385C3.95181 38.5347 4.779 40.6773 8.91582 42.4C9.15432 42.0994 9.47199 41.8715 9.8293 41.7432C9.38543 41.5857 9.00021 41.2768 8.7538 40.8623C8.38667 40.2445 8.37303 39.4693 8.71734 38.8408C9.77793 36.8993 11.8091 35.6914 14.0208 35.6884C16.078 35.6884 17.9428 36.7107 19.0502 38.3722H26.9442C27.1609 38.0485 27.4095 37.7458 27.6884 37.466C28.8293 36.3217 30.3472 35.6905 31.9625 35.6882H31.9638H31.9651C34.175 35.6882 36.2087 36.8895 37.273 38.8243C37.618 39.4523 37.6064 40.2259 37.2414 40.8457C36.9964 41.2604 36.6122 41.5703 36.1688 41.7292C36.5324 41.858 36.855 42.0893 37.0953 42.3952C41.2216 40.6734 42.0475 38.5347 42.1005 38.3853C42.1407 38.2707 42.1517 38.1483 42.1325 38.0289Z" fill="#EE6000"/>
<path d="M35.4903 43.3967H35.4897L31.6864 43.4019C31.619 43.2418 31.4895 42.7972 31.4882 41.7364C31.4864 40.6756 31.6144 40.2302 31.6817 40.0697L35.484 40.0641C35.5749 40.0636 35.6588 40.0158 35.7048 39.9376C35.7511 39.8592 35.7523 39.7629 35.7087 39.6833C34.9586 38.3196 33.527 37.4727 31.9649 37.4727C30.8261 37.4743 29.7563 37.9195 28.9523 38.7259C28.538 39.1412 28.2219 39.6276 28.0112 40.1568H17.983C17.3534 38.5869 15.8169 37.473 14.0208 37.473C12.4634 37.4752 11.0314 38.327 10.2835 39.6963C10.2399 39.7759 10.2417 39.8726 10.2879 39.9505C10.3342 40.0284 10.4181 40.076 10.5087 40.076H10.509L14.3123 40.07C14.38 40.2301 14.5093 40.6747 14.5105 41.7358C14.5123 42.7968 14.3843 43.2419 14.317 43.4022L10.5147 43.4079C10.4241 43.408 10.3402 43.4562 10.2939 43.5341C10.2479 43.6122 10.2464 43.709 10.2902 43.7885C11.0402 45.1521 12.4722 45.9997 14.0275 45.9997H14.0338C15.1729 45.9979 16.2424 45.5528 17.0467 44.7463C17.4609 44.3307 17.777 43.8441 17.9875 43.315H28.0155C28.6452 44.8853 30.1805 45.9991 31.9722 45.9993C31.9722 45.9993 31.9779 45.9993 31.9782 45.9993C33.5353 45.9972 34.9676 45.1449 35.7155 43.7764C35.7591 43.6967 35.7573 43.5999 35.711 43.5221C35.6648 43.4442 35.5809 43.3967 35.4903 43.3967Z" fill="#EE6000"/>
</svg>
