<svg width="6" height="10" viewBox="0 0 6 10" fill="none" xmlns="http://www.w3.org/2000/svg">
<path d="M5.07699 8.92084L4.93727 9.49201C4.5181 9.65746 4.18326 9.78338 3.93392 9.86996C3.68432 9.9568 3.3943 10 3.06385 10C2.5564 10 2.1617 9.87569 1.88019 9.62878C1.59868 9.38088 1.45788 9.06674 1.45788 8.68566C1.45788 8.53814 1.46809 8.38641 1.48933 8.2318C1.51076 8.07702 1.54481 7.9027 1.59142 7.70786L2.11527 5.85372C2.16187 5.67617 2.20149 5.50795 2.23322 5.34886C2.26539 5.19076 2.2809 5.0453 2.2809 4.91436C2.2809 4.67758 2.23187 4.51195 2.13427 4.41883C2.03667 4.32598 1.85043 4.27884 1.57394 4.27884C1.43852 4.27884 1.29933 4.30053 1.15746 4.34247C1.01495 4.3846 0.893155 4.42528 0.790894 4.46311L0.930976 3.89148C1.27415 3.75176 1.60217 3.63211 1.91595 3.53281C2.22972 3.43323 2.5262 3.3834 2.80663 3.3834C3.31059 3.3834 3.69947 3.5052 3.97255 3.7488C4.24564 3.99258 4.38214 4.30859 4.38214 4.69801C4.38214 4.77858 4.37317 4.92055 4.3539 5.12346C4.33508 5.32681 4.30004 5.51314 4.24895 5.68262L3.72734 7.52933C3.68459 7.67766 3.64614 7.84723 3.61271 8.03804C3.57821 8.22759 3.56172 8.37242 3.56172 8.46958C3.56172 8.71479 3.61639 8.88221 3.726 8.9712C3.83641 9.0602 4.0266 9.10448 4.29672 9.10448C4.42354 9.10448 4.56784 9.08198 4.72817 9.0378C4.88806 8.99361 5.00466 8.9548 5.07699 8.92084ZM5.20928 1.1678C5.20928 1.48955 5.08802 1.76434 4.84433 1.99028C4.60127 2.21703 4.30837 2.3305 3.96574 2.3305C3.62203 2.3305 3.32842 2.21703 3.08258 1.99028C2.83719 1.76425 2.71423 1.48955 2.71423 1.1678C2.71423 0.84668 2.83719 0.571444 3.08258 0.342633C3.32798 0.114181 3.62212 0 3.96574 0C4.30828 0 4.60127 0.11445 4.84433 0.342633C5.08819 0.571444 5.20928 0.846769 5.20928 1.1678Z" fill="#00479D"/>
</svg>
