<svg width="20" height="20" viewBox="0 0 20 20" fill="none" xmlns="http://www.w3.org/2000/svg">
<path d="M19.6111 15.9032L17.3939 14.4249L15.4228 13.1112C15.0425 12.8581 14.5313 12.9411 14.2504 13.3015L13.0308 14.8694C12.7688 15.2097 12.2975 15.3074 11.9218 15.0994C11.0943 14.6391 10.1156 14.2057 7.95637 12.0436C5.7971 9.88157 5.36089 8.90572 4.90055 8.07815C4.69254 7.70245 4.79031 7.23117 5.13055 6.96922L6.69846 5.74958C7.05888 5.4688 7.14189 4.9576 6.88881 4.57717L5.61538 2.66684L4.09677 0.388902C3.83829 0.00117267 3.32088 -0.115232 2.92127 0.124413L1.16989 1.1751C0.696574 1.45397 0.348649 1.90428 0.198182 2.43267C-0.280758 4.17886 -0.377319 8.03088 5.79605 14.2042C11.9694 20.3776 15.8211 20.2807 17.5673 19.8018C18.0957 19.6513 18.546 19.3034 18.8248 18.8301L19.8755 17.0787C20.1152 16.6791 19.9988 16.1617 19.6111 15.9032Z" fill="#828282"/>
<path d="M11.379 3.1037C14.615 3.1073 17.2374 5.72969 17.241 8.96571C17.241 9.15614 17.3954 9.31055 17.5858 9.31055C17.7762 9.31055 17.9307 9.15617 17.9307 8.96571C17.9267 5.34899 14.9957 2.41805 11.379 2.41406C11.1886 2.41406 11.0342 2.56844 11.0342 2.7589C11.0341 2.94929 11.1885 3.1037 11.379 3.1037Z" fill="#828282"/>
<path d="M11.379 5.1721C13.4729 5.17456 15.1696 6.87134 15.1721 8.96514C15.1721 9.15557 15.3264 9.30998 15.5169 9.30998C15.7073 9.30998 15.8617 9.15561 15.8617 8.96514C15.8589 6.4906 13.8536 4.48527 11.379 4.48242C11.1886 4.48242 11.0342 4.6368 11.0342 4.82726C11.0342 5.01773 11.1886 5.1721 11.379 5.1721Z" fill="#828282"/>
<path d="M11.379 7.2414C12.3307 7.24253 13.102 8.01377 13.1031 8.96552C13.1031 9.15595 13.2575 9.31036 13.4479 9.31036C13.6384 9.31036 13.7928 9.15599 13.7928 8.96552C13.7913 7.63307 12.7115 6.55328 11.379 6.55176C11.1886 6.55176 11.0342 6.70613 11.0342 6.8966C11.0341 7.08702 11.1885 7.2414 11.379 7.2414Z" fill="#828282"/>
</svg>
