<svg width="20" height="30" viewBox="0 0 20 30" fill="none" xmlns="http://www.w3.org/2000/svg">
<path d="M10 0C4.4861 0 0 4.4861 0 10C0 11.6553 0.413847 13.2965 1.20058 14.7522L9.45315 29.6777C9.56301 29.8767 9.77236 29.9999 10 29.9999C10.2276 29.9999 10.437 29.8767 10.5469 29.6777L18.8025 14.7473C19.5862 13.2965 20 11.6552 20 9.99994C20 4.4861 15.5139 0 10 0ZM10 15C7.24305 15 5.00003 12.7569 5.00003 10C5.00003 7.24305 7.24305 5.00003 10 5.00003C12.7569 5.00003 15 7.24305 15 10C15 12.7569 12.7569 15 10 15Z" fill="#EE6000"/>
</svg>
