<svg width="21" height="21" viewBox="0 0 21 21" fill="none" xmlns="http://www.w3.org/2000/svg">
<path fill-rule="evenodd" clip-rule="evenodd" d="M0 10.5C0 4.70101 4.70101 0 10.5 0C16.299 0 21 4.70101 21 10.5C21 16.299 16.299 21 10.5 21C4.70101 21 0 16.299 0 10.5Z" fill="url(#paint0_linear)"/>
<path fill-rule="evenodd" clip-rule="evenodd" d="M15.5695 6.72301C15.9423 7.09578 15.9423 7.70017 15.5695 8.07294L9.64452 14.2775C9.27174 14.6503 8.66736 14.6503 8.29458 14.2775L5.43095 11.4139C5.05817 11.0411 5.05817 10.4367 5.43095 10.0639C5.80372 9.69115 6.40811 9.69115 6.78088 10.0639L8.96955 12.2526L14.2195 6.72301C14.5923 6.35024 15.1967 6.35024 15.5695 6.72301Z" fill="white"/>
<defs>
<linearGradient id="paint0_linear" x1="-0.0345309" y1="10.4436" x2="20.9984" y2="10.4436" gradientUnits="userSpaceOnUse">
<stop stop-color="#EB5757"/>
<stop offset="1" stop-color="#F07740"/>
</linearGradient>
</defs>
</svg>
