<svg width="18" height="18" viewBox="0 0 18 18" fill="none" xmlns="http://www.w3.org/2000/svg">
<path d="M0.109852 16.8296L5.33872 11.6007C4.34696 10.3764 3.74997 8.81978 3.74997 7.12503C3.74997 3.19631 6.94628 0 10.875 0C14.8037 0 18 3.19631 18 7.12503C18 11.0538 14.8037 14.2501 10.875 14.2501C9.18022 14.2501 7.62364 13.653 6.39925 12.6613L1.17038 17.8902C1.02388 18.0366 0.786505 18.0366 0.640009 17.8902L0.109816 17.36C-0.0366096 17.2135 -0.0366096 16.976 0.109852 16.8296ZM10.875 12.75C13.9768 12.75 16.5 10.2268 16.5 7.12503C16.5 4.02322 13.9768 1.50002 10.875 1.50002C7.77316 1.50002 5.24996 4.02322 5.24996 7.12503C5.24996 10.2268 7.77316 12.75 10.875 12.75Z" fill="#EE6000"/>
</svg>
